<svg width="24" height="24" viewBox="0 0 24 24" fill="none" xmlns="http://www.w3.org/2000/svg">
<g id="Figma">
<g id="Figma_2">
<g id="Color">
<g id="Taobao">
<g id="back">
<g id="path0_fill-link">
<path id="path0_fill" d="M0 12C0 5.3726 5.3726 0 12 0C18.6274 0 24 5.3726 24 12C24 18.6274 18.6274 24 12 24C5.3726 24 0 18.6274 0 12Z" fill="#333333"/>
</g>
</g>
</g>
</g>
<g id="Group">
<g id="5">
<g id="path1_fill-link">
<path id="path1_fill" d="M9.59995 19.2001C10.9254 19.2001 12 18.1256 12 16.8001V14.4001H9.59995C8.27447 14.4001 7.19995 15.4747 7.19995 16.8001C7.19995 18.1256 8.27447 19.2001 9.59995 19.2001Z" fill="#0ACF83"/>
</g>
</g>
<g id="4">
<g id="path2_fill-link">
<path id="path2_fill" d="M7.19995 12.0001C7.19995 10.6746 8.27447 9.6001 9.59995 9.6001H12V14.4001H9.59995C8.27447 14.4001 7.19995 13.3256 7.19995 12.0001Z" fill="#A259FF"/>
</g>
</g>
<g id="3">
<g id="path2_fill-link_2">
<path id="path2_fill_2" d="M7.19995 7.20005C7.19995 5.87456 8.27447 4.80005 9.59995 4.80005H12V9.60005H9.59995C8.27447 9.60005 7.19995 8.52553 7.19995 7.20005Z" fill="#F24E1E"/>
</g>
</g>
<g id="2">
<g id="path3_fill-link">
<path id="path3_fill" d="M12 4.80005H14.4C15.7255 4.80005 16.8 5.87456 16.8 7.20005C16.8 8.52553 15.7255 9.60005 14.4 9.60005H12V4.80005Z" fill="#FF7262"/>
</g>
</g>
<g id="1">
<g id="path4_fill-link">
<path id="path4_fill" d="M16.8 12.0001C16.8 13.3256 15.7255 14.4001 14.4 14.4001C13.0745 14.4001 12 13.3256 12 12.0001C12 10.6746 13.0745 9.6001 14.4 9.6001C15.7255 9.6001 16.8 10.6746 16.8 12.0001Z" fill="#1ABCFE"/>
</g>
</g>
</g>
</g>
</g>
</svg>
